<svg
    width="100" height="100"
    viewBox="0 0 256 256"
    xmlns="http://www.w3.org/2000/svg"
    preserveAspectRatio="xMidYMid">
  <path
    fill="#25D366"
    d="M128 0C57.3 0 0 57.3 0 128c0 26.6 7.3 51.4 20 72.6L0 256l55.7-19.4C76.4 248.7 101.2 256 128 256c70.7 0 128-57.3 128-128S198.7 0 128 0zm0 231.6c-21.1 0-40.7-6.2-57.2-16.9L57.6 217l11.5-33.6c-10.7-16.5-16.9-36.1-16.9-57.2 0-56.4 45.9-102.3 102.3-102.3S230.3 69.8 230.3 126.2 185.4 231.6 128 231.6z"/>
  <path
    fill="#fff"
    d="M195.5 153.8c-3.2-1.6-19-9.3-21.9-10.4-2.9-1.1-5-1.6-7.2 1.6-2.2 3.2-8.3 10.4-10.2 12.6-1.9 2.1-3.8 2.4-7 0.8-3.2-1.6-13.5-5-25.8-16-9.5-8.5-15.8-18.9-17.6-22.1-1.8-3.2-0.2-4.8 1.4-6.4 1.5-1.5 3.2-3.2 4.8-4.8 1.6-1.6 2.1-2.9 3.2-4.8 1-1.9 0.5-3.6-0.5-5-1-1.4-7.2-17.3-10-23.9-2.6-6.4-5.4-5.4-7.2-5.4-1.8 0-4.8 0.6-7.2 0.6-2.4 0-5.6 0.5-8.5 4.2-2.9 3.6-11 10.9-11 26.6s11.3 30.9 12.8 33.1c1.6 2.2 22 33.6 53.1 45.2 7.4 3.2 13.1 5.1 17.6 6.5 7.4 2.4 14.1 2.1 19.4 1.3 5.9-0.9 19-7.7 21.6-15.3 2.6-7.6 2.6-14.1 1.8-15.4z"/>
</svg>
